<svg xmlns="http://www.w3.org/2000/svg" width="1024" height="399" viewBox="-1.809 -1.809 163.968 63.918"><title>Berenberg Bank</title><path d="M0 32.25h160.35v-.6H0v.6z" fill="currentColor" fill-rule="evenodd"/><path d="M145.05 41.85c0-3.45 1.95-4.2 5.1-4.2h5.4c4.2 0 4.8 1.5 4.8 3.75v.45h-3.6c0-1.2-.6-1.35-1.8-1.35h-3.9c-1.8 0-2.4.45-2.4 2.4v1.5c0 1.95.6 2.4 2.4 2.4h3.75c1.05 0 1.95-.15 1.95-1.2v-.45h-4.5v-2.4h8.1v3.3c0 3.45-1.8 3.6-5.85 3.6h-4.35c-3.15 0-5.1-.75-5.1-4.2v-3.6m-18.3-4.05h10.95c2.85 0 3.6 1.35 3.6 3.45V42c0 1.65-.45 2.55-2.1 2.85V45c1.05.15 1.95.6 1.95 2.55v1.95h-3.6v-1.35c0-1.35-.3-1.65-1.5-1.65h-5.7v3h-3.6V37.8zm3.6 5.7h6c1.05 0 1.35-.3 1.35-1.2V42c0-1.05-.45-1.35-1.65-1.35h-5.7v2.85m-20.4-5.7h12.9v2.7h-9.3v1.95h8.85v2.4h-8.85v1.8H123v2.85h-13.05V37.8m-18.9 0h10.5c2.85 0 4.2.75 4.2 3 0 2.1-.75 2.4-1.65 2.7v.15c1.5.15 2.1 1.05 2.1 2.7 0 2.7-1.5 3.15-3.6 3.15H91.05V37.8zm3.6 4.65h6.45c.75 0 1.05-.3 1.05-.9 0-.75-.3-.9-1.05-.9h-6.45v1.8zm0 4.2h6.6c.75 0 1.2-.15 1.2-.75 0-.9-.45-1.05-1.2-1.05h-6.6v1.8M71.1 37.8h5.55l6.75 8.55V37.8h3.75v11.7h-5.7l-6.75-8.55v8.55h-3.6V37.8m-16.95 0h12.9v2.7h-9.3v1.95h8.85v2.4h-8.85v1.8h9.6v2.85h-13.2V37.8m-18.3 0h10.8c2.85 0 3.6 1.35 3.6 3.45V42c0 1.65-.45 2.55-2.1 2.85V45c1.05.15 1.95.6 1.95 2.55v1.95h-3.6v-1.35c0-1.35-.3-1.65-1.5-1.65h-5.55v3h-3.6V37.8zm3.6 5.7h5.85c1.05 0 1.35-.3 1.35-1.2V42c0-1.05-.45-1.35-1.65-1.35h-5.55v2.85M18.9 37.8h12.9v2.7h-9.3v1.95h8.85v2.4H22.5v1.8h9.45v2.85H18.9V37.8M0 37.8h10.5c2.85 0 4.2.75 4.2 3 0 2.1-.75 2.4-1.65 2.7v.15c1.5.15 2.1 1.05 2.1 2.7 0 2.7-1.5 3.15-3.6 3.15H0V37.8zm3.75 4.65h6.3c.75 0 1.05-.3 1.05-.9 0-.75-.3-.9-1.05-.9h-6.3v1.8zm0 4.2h6.45c.75 0 1.2-.15 1.2-.75 0-.9-.45-1.05-1.2-1.05H3.75v1.8" fill="#c6572c"/><path d="M82.65 13.8l-1.05-.75v1.05l1.05.9v-1.2M84.15 14.4c0-.75-1.05-2.25-1.05-2.25v1.5s.6.45 1.05.75M82.65 13.35v-1.8c-1.2.3-1.05.9-1.05.9l1.05.9M81.15 12.9l-.15-.15c-.3-.3-.9.15-.9.15l1.05.9v-.9M84.15 15c-.75-.6-1.05-.9-1.05-.9v.9s.6.3 1.05.6c.15 0 .3-.15 0-.6M81.6 15.9c0 .45.9 1.05.9.75V15.6l-.9-.9v1.2M81.15 14.55l-.9-.75.9 1.95v-1.2" fill="currentColor"/><path d="M83.25 15.6h-.3v.15c0 3.6-1.35 4.35-1.35 4.35s-.3.15-.45.15c-.45 0-.6 0-.75.15-.15.15-.45.6-.6.6l-.15.45.3-.15h.45c-.3.3-.6 1.2-.45 1.35v.3l.3-.15c.15-.15.45-.15.45-.15h.15l.3-.3.3.9.15.45.15-.45v-.15c.45 0 .6-.6.6-.75.3-.45.45-.6.45-.75h1.35v-.15c-.15-.6-.3-.75-.45-.75h-.15c-.3 0-.45 0-.45-.15v-.15l1.35-3.15c.3-1.05-1.2-1.65-1.2-1.65zm-.45 4.65s-.15.3 0 .45c.15.3.45.3.75.3h.15v.3h-.9c-.15 0-.45.15-.75.9 0 .3-.15.6-.3.6h-.15c0-.3-.15-.6 0-.9.15-.3.15-.3.15-.45h-.3c-.15.15-.15.3-.15.3-.3.3-.45.45-.6.45 0 0-.15.15-.45.15.15-.3.3-.75.45-.9 0-.15.15-.15.15-.15H81s.15 0 .15-.15c.15 0 .15 0 .15-.15 0 0 0-.15-.15-.15h-.3c-.15.15-.3.15-.6.15l.3-.3c.15-.15.45-.15.6-.15.3 0 .6-.15.6-.15.15 0 1.2-.6 1.5-3.15H84l-1.2 3M77.85 20.4c.6-2.55.15-3 .15-3s.3-1.65 0-2.85c-.15-.6 0-2.1 0-2.1l-.15.15c-.75-.15-1.5.3-1.8.3h-.6c0 .15-.15.45.15.45.45.15.45.3.45.3l-.3.45s.15.15.3.15.3 0 0 .45c-.15.3-.75.6-.75.6s-.45.15-.75 0c0 .15-.15 0-.15 0V15h.75l-.6-1.35H75l-.45-1.05h.3l-.75-1.35-.75 1.35h.3l-.45 1.05h.45L72.9 15h.9c.15.45-.15.6-.15.75-.15.15.15.3.15.3s.15.75 0 .9c0 .15-.3.3-.3.3s0 .3.3.45v.75l-.15.15.15.3-.15.15.45.3.3-.3-.15-.15.3-.3-.3-.15v-.6c0-.15 1.05-.45 1.05-.45s.6.45.45 1.05c-.15.45-1.05 1.35-1.05 1.35-.6 1.05-.15 1.2 0 1.65.15.3-.15.45-.45.6-.45.3-.45.6-.45.6h1.65c.15-.45 0-1.2 0-1.2 0-1.05.9-1.05.9-1.05.15.3.3.45.45.6.3.45.3.9.3.9-.15.3-.3.45-.45.45-.45.15-.3.3-.3.3h.6c1.65.15 1.35-.6 1.35-.6-.6-.75-.45-1.65-.45-1.65M78.75 2.25H75.9l.3 1.35 2.55-1.35M79.05 0c-.15 0-3.15 1.8-3.15 1.8h6.15s-2.7-1.8-3-1.8" fill="currentColor"/><path d="M88.95 10.95c-.75-1.05-1.8-1.5-2.7-1.65.3-.15 2.25-.75 2.25-1.95v-2.7c-1.95-2.4-4.65-.75-4.65-.75l-.15.15.75.9-.6 1.5.3-.15c1.8-.6 2.55-.15 2.85.15-1.95 1.35-4.5.75-5.25.6.3-.75.45-1.8.6-2.55l.15-.15-3.45-1.8L75.6 4.5l.6 2.55c-.75.15-3.15.6-5.25-.6.3-.3 1.2-.9 3-.15h.3l-.45-1.35.75-1.05-.3-.15s-2.7-1.65-4.65.9v2.7c0 1.05 1.8 1.8 2.25 1.8-1.05.15-1.95.6-2.7 1.8l-.15 5.4s.6 1.05 3 2.55c-.3.15-.9.75-2.1.9h-.3l.75 1.5-.75 2.1.3-.15c.15 0 1.2-.3 2.25-1.05.6.75 3.3 3.9 6.75 3.9h.3c3.45 0 6.15-3.15 6.75-3.9 1.05.75 2.1 1.05 2.1 1.05l.3.15-.75-2.1.9-1.5h-.3c-1.2-.15-1.95-.75-2.1-.9 2.4-1.5 2.85-2.55 3-2.55l-.15-5.4zm-.3.15v1.95l-.45.3c-.75-.75-1.35-.9-1.65-.9V10.2l-3.45-.15.9-.45c.3 0 3.3-.6 4.65 1.5zm-2.1 3.3v-1.65c.15 0 .75.15 1.35.75l-1.35.9zm-7.5-2.55c-.3-.15-2.1-.9-4.8-2.55l2.25-1.05h.15c.9.3 1.65 1.05 1.95 1.5-.3.3-.15 1.2.45 1.2.75 0 .75-.9.45-1.2.3-.45 1.05-1.2 1.95-1.5h.15l2.25 1.05c-2.85 1.65-4.5 2.4-4.8 2.55zm-1.8-6.6c0 .45.3 1.35 1.5 2.1V4.5h-.15l-2.4.75-.15-.15 3-1.35L81.9 5.1v.15l-1.05-.3-1.5-.6v3c1.2-.9 1.5-1.65 1.5-2.1l.9.3c-.15.9-.45 1.95-.45 2.4-1.05.45-1.95 1.35-2.25 1.65-.3-.3-1.2-1.2-2.25-1.65l-.6-2.4 1.05-.3zm7.2.6l.3-.9-.6-.9c.6-.3 2.55-1.05 4.05.75v2.1c-.3-.15-.6-.45-.75-.6-.3-.15-1.05-.9-3-.45zM84 7.65c.9 0 2.25-.3 3.3-.9.3.15.75.45.9.75-.15.75-1.5 1.2-2.1 1.35L84 9l-2.4-1.05c0-.15.15-.45.15-.6.3.15 1.2.3 2.25.3zm-4.95-4.8l3 1.65v.15l-3-1.2-3 1.35v-.15l3-1.8zm-5.1 1.2l-.6.75.3 1.05c-2.25-.75-3 .45-3 .6-.3.15-.45.3-.75.45V4.8c1.5-1.95 3.45-1.05 4.05-.75zM69.9 7.5c.15-.3.6-.6.9-.75 2.1 1.35 4.65.9 5.55.6l.15.6L74.1 9 72 8.85c-.6-.15-1.95-.6-2.1-1.35zm4.2 2.1l.9.45-3.45.15v2.25c-.3 0-.9.15-1.65.9l-.45-.3V11.1C70.8 9 73.8 9.6 74.1 9.6zm-2.55 4.8l-1.35-.9c.6-.6 1.05-.75 1.35-.75v1.65zm-.75 6.75l-.6-1.05c1.5-.3 2.25-1.2 2.25-1.2l.15-.15-.15-.15c-2.25-1.2-3-2.25-3.15-2.4l.15-2.7 2.1 1.35c2.1 1.2.75 6.45.6 7.05-.75.45-1.5.75-1.95.9l.6-1.65zm1.95.75l-.15-.15c.3-1.2 1.05-5.25-.45-6.9V10.8l3.9-.15c1.65 1.05 2.55 1.5 2.85 1.5v13.2c-3.15 0-5.7-2.85-6.15-3.45zm6.45 3.45v-13.2c.3-.15 1.35-.6 2.85-1.5l3.75.15.15 4.05c-1.05 1.05-1.05 3.15-.75 4.8v.15c0 .9.3 1.65.3 1.95 0 0-2.85 3.6-6.3 3.6zm8.7-5.25l-.6 1.05.6 1.65c-.45-.15-1.2-.45-1.95-.9-.15-.3-.3-1.2-.45-2.25 0-.15 0-.45.3-.6.15.15.9.75 2.1 1.05zm-1.95-1.65c-.15.15-.45.3-.6.45-.15-1.65 0-3.45 1.2-4.05l2.1-1.35v2.7c0 .15-.75 1.05-2.7 2.25" fill="currentColor"/><path d="M81.9 3.6l.3-1.35h-2.85L81.9 3.6M133.2 56.7c-.15-.45-.3-.75-.6-.75s-.6.3-.75.6c-.15.3-.15.75-.15 1.2 0 .45 0 .9.15 1.05.15.6.45.75.6.75.3 0 .6-.15.75-.6.15-.3.15-.75.15-1.2 0-.45 0-.75-.15-1.05zm-.75 3.3c-1.05 0-1.5-1.35-1.5-2.25 0-1.2.75-2.25 1.5-2.25 1.2 0 1.65 1.35 1.65 2.25 0 1.35-.6 2.25-1.65 2.25m-4.95-4.05c-.6 0-.9.45-.9 1.05 0 .6.3.9.75.9.3 0 .6 0 .9-.3v-.45c0-.75-.3-1.2-.75-1.2zm.45 3.45c-.3.3-.6.45-1.05.6-.3.15-.45.3-.75.3l-.3-.45c.3 0 .45 0 .6-.15.6-.3 1.05-.6 1.35-1.2.15 0 .15-.15.3-.3-.3.15-.6.3-.75.3-.9 0-1.35-.6-1.35-1.5s.6-1.5 1.5-1.5 1.35.75 1.35 1.65c0 .75-.3 1.65-.9 2.25m-5.25.45c-.3.15-.6.3-1.05.3h-.45l-.15-.45h.45c.9 0 1.5-.45 1.5-1.05 0-.6-.45-.9-1.05-.9-.3 0-.6.15-.75.15l.15-2.25h2.1l-.15.45h-1.35l-.15 1.2h.45c.75 0 1.35.45 1.35 1.35 0 .45-.3 1.05-.9 1.2m-6.15.15v-.6h.75v-3s-.15.15-.45.3c-.15 0-.6.15-.6.15v-.3l1.2-.9h.45v3.75h.75v.6h-2.1m-4.95-4.05h-1.2V60h-.6v-4.05h-1.2v-.6h3v.6M105.75 60h.75v-4.65h-.75V60zm-4.8 0v-4.65h2.4v.6h-1.8v1.35h1.5v.6h-1.5v1.5h1.95v.6h-2.55m-3.9 0c-.45 0-.9-.15-1.35-.3l.15-.6c.45.3.75.45 1.2.45.6 0 1.05-.3 1.05-.9 0-.3-.3-.6-.75-.75l-.45-.15c-.75-.15-1.05-.45-1.05-1.05 0-.9.6-1.35 1.5-1.35.45 0 .9.15 1.35.45l-.3.45c-.45-.3-.75-.45-1.05-.45-.6 0-.9.3-.9.75 0 .3.3.45.75.6l.45.15c.6.15 1.2.6 1.2 1.35 0 .6-.6 1.35-1.8 1.35m-8.1 0c-.6 0-1.05-.15-1.5-.3l.15-.6c.45.3.9.45 1.35.45.6 0 .9-.3.9-.9 0-.3-.15-.6-.75-.75l-.45-.15c-.75-.15-1.05-.45-1.05-1.05 0-.9.6-1.35 1.5-1.35.45 0 .9.15 1.35.45l-.3.45c-.45-.3-.6-.45-1.05-.45-.45 0-.75.3-.75.75 0 .3.15.45.6.6l.6.15c.6.15 1.05.6 1.05 1.35 0 .6-.6 1.35-1.65 1.35m-4.8-4.05H83.1v1.5h.45c.45 0 .6 0 .9-.15 0-.15.15-.3.15-.6s-.15-.6-.45-.75zm.6 4.05c-.15-.3-.15-.45-.45-.75-.3-.6-.45-.75-.75-1.05-.15-.15-.15-.3-.45-.3V60h-.6v-4.65h1.35c.45 0 .75.15 1.05.45.15.15.3.45.3.9 0 .75-.45 1.2-1.2 1.2.3.15.45.3.45.45.15.15.3.3.45.6.15.3.45.9.6 1.05h-.75m-7.05 0v-4.65h2.4l-.15.6H78.3v1.35h1.5v.6h-1.5v1.5h1.95v.6H77.7m-3.45 0H75v-4.65h-.75V60zm-2.85 0l-1.65-2.55 1.65-2.1h.75l-1.65 2.1L72.15 60h-.75zM69 60v-4.65h.75V60H69m-3.3 0l-1.2-2.4c-.3-.6-.45-1.05-.6-1.35v1.35l.15 2.4h-.75v-4.65h.75l1.35 2.55c.15.45.3.9.45 1.05 0-.15-.15-.75-.15-1.35v-2.25h.75V60h-.75m-6.3-3.9c0 .15-.6 1.8-.6 2.1h1.35c-.15-.3-.6-1.95-.75-2.1zm1.2 3.9l-.45-1.35h-1.5L58.2 60h-.6l1.5-4.65h.75l1.5 4.65h-.75m-5.7-2.1h-1.2v1.5h.9c.3 0 .75-.15.75-.75 0-.45-.15-.75-.45-.75zm-.15-1.95H53.7v1.35h.6c.45 0 .6 0 .75-.15 0-.15.15-.3.15-.45 0-.45-.3-.6-.45-.75zm.3 3.9c-.15.15-.45.15-.6.15h-1.5v-4.65H54c.75 0 .9 0 1.2.3.45.15.6.45.6.9s-.3.75-.75 1.05c.6.15.9.45.9 1.05 0 .75-.3 1.05-.9 1.2M51 55.95h-1.05V60h-.75v-4.05H48v-.6h3.15l-.15.6m-6 .15c-.15.15-.6 1.8-.6 2.1h1.2c0-.3-.6-1.95-.6-2.1zm1.2 3.9l-.45-1.35h-1.5L43.8 60h-.6l1.5-4.65h.75l1.5 4.65h-.75m-5.85 0h-.6l-1.5-4.65H39l.75 2.85c.15.15.15.3.15.6.15.15.15.15.15.3 0-.15.15-.15.15-.3 0-.3.15-.45.15-.6l.9-2.85h.6L40.35 60m-4.8 0h.6v-4.65h-.6V60zm-3.45-4.05h-1.05v1.5h.45c.45 0 .6 0 .75-.15.15-.15.3-.3.3-.6s-.15-.6-.45-.75zm.45 4.05c0-.3-.15-.45-.3-.75-.3-.6-.45-.75-.75-1.05-.15-.15-.3-.3-.45-.3V60h-.6v-4.65h1.2c.6 0 .9.15 1.05.45.3.15.45.45.45.9 0 .75-.45 1.2-1.2 1.2l.45.45c0 .15.15.3.3.6.3.3.6.9.75 1.05h-.9m-5.1-3.9c-.15-.15-.3-.15-.75-.15h-.6v1.65h.75c.3 0 .45 0 .6-.15.15-.15.3-.45.3-.6 0-.3-.15-.6-.3-.75zm.45 1.8c-.3.15-.6.3-1.05.3h-.75V60h-.6v-4.65h1.2c.6 0 .9.15 1.05.3.45.15.6.6.6 1.05 0 .6-.15.9-.45 1.2" fill="currentColor"/></svg>