<svg xmlns="http://www.w3.org/2000/svg" version="1.0" width="602.3622" height="283.0394" viewBox="0 0 602.3622 283.0394"><title>EPlus</title><path d="M386.824 179.9695c0 14.7157-4.692 29.1884-15.3814 29.1884-12.8109 0-12.1674-17.5624-12.1674-25.3967v-70.0104l-31.612 7.7967v73.3723c0 8.5496 1.4422 16.193 4.414 22.3728v.0064c4.7813 9.934 13.5159 16.0706 26.5545 16.0706 8.4402 0 19.9871-3.067 27.9727-16.0706h.0078c.907-1.4857 1.7642-3.0816 2.5632-4.8165l.388 4.8165 1.1122 13.6984h27.7604V113.7508l-31.612 7.7967v58.422zm95.0478-21.5968l-4.2668-3.0816c-10.681-7.8406-12.6003-11.1565-12.6003-15.1909 0-4.7523 3.4114-9.2537 11.3183-9.2537 7.4683 0 13.6609 2.8393 17.5125 4.9787l6.4063-18.2746c-8.3318-3.7998-16.8757-6.1717-25.845-6.1717-23.2798 0-38.0245 16.1433-38.0245 34.6503 0 15.9028 8.9837 26.5837 23.4939 36.7877l4.0634 2.8495c9.1867 6.4039 13.6754 10.4383 13.6754 17.3197 0 7.3588-5.7689 10.924-11.9636 10.924-9.1807 0-17.511-4.5177-22.2109-7.365l-4.2027 10.7539-2.8555 7.2843c9.621 5.6962 19.8705 8.7863 30.9752 8.7863 15.807 0 26.6623-6.6114 32.8053-16.0706 4.0716-6.2586 6.07-13.7714 6.07-21.4289 0-17.094-10.0381-27.057-24.351-37.4974zm-207.9364 72.6247h31.6038V58.9316l-31.6038 7.7818v164.284zM43.244 155.5257c.4252-12.3439 3.6315-26.1068 15.3734-26.1068 13.6697 0 13.6697 21.5968 13.6697 26.1068h-29.043zm14.9496-44.1468c-25.8428 0-49.3363 21.3626-49.3363 60.7567 0 18.6977 5.315 34.3722 14.649 45.1779h.0146c8.7927 10.1916 21.1422 16.0561 35.9536 16.0561 17.0872 0 30.9685-8.552 37.1611-12.5861l-1.7202-3.4845-6.8238-13.8356c-4.055 2.6129-13.6675 9.0191-22.2108 9.0191-14.3132 0-23.7058-12.1028-23.7058-39.8696h58.5177v-6.8815c0-25.6312-10.6753-54.3525-42.4991-54.3525zm72.148 46.554c-7.8487 0-14.203 6.3625-14.203 14.2027 0 7.8424 6.3543 14.203 14.203 14.203 7.84 0 14.2027-6.3606 14.2027-14.203 0-7.8402-6.3627-14.2026-14.2026-14.2026zM543.6474 8.852c7.5125 0 13.6027 6.1055 13.6027 13.6467v22.6077h22.6081c7.5395 0 13.6467 6.0906 13.6467 13.6013 0 7.5122-6.1072 13.6028-13.6467 13.6028h-22.608v22.614c0 7.5332-6.0903 13.6468-13.6028 13.6468-7.5104 0-13.601-6.1136-13.601-13.6467V72.3104h-22.6159c-7.533 0-13.6449-6.0906-13.6449-13.6028 0-7.5107 6.1119-13.6013 13.645-13.6013h22.6158V22.4986c0-7.5412 6.0906-13.6467 13.601-13.6467zM218.933 233.3654c-11.1065 0-19.7232-6.3606-25.1476-16.0682l-.9092-1.7288v58.619h-31.612V120.6302l27.7625-6.8747 1.5006 18.7494c6.1923-13.763 17.5107-21.1216 29.4743-21.1216 19.4372 0 35.6673 17.0876 35.6673 58.6126 0 19.3412-3.588 35.9681-10.513 47.3156-6.1572 10.1108-14.9566 16.054-26.223 16.054zm-11.1065-24.2033c11.1065 0 14.5183-15.9066 14.5183-37.4974 0-23.975-3.4118-36.078-13.8812-36.078-13.4558 0-15.5874 21.3627-15.5874 37.265 0 12.3353 1.0626 36.3104 14.9503 36.3104z" fill="currentColor" fill-rule="evenodd"/></svg>