<svg viewBox="0 0 100 21"><title>Infocentric</title><path fill="currentColor" d="M16.4838 6.91841C16.5848 7.14691 16.6858 7.3744 16.8383 7.5269C17.0663 7.7804 17.4208 7.95689 17.8263 7.95689C18.7897 7.95689 19.3977 7.2989 19.3977 6.43691C19.3977 6.15842 19.3727 5.87942 19.2712 5.62542C18.0548 2.17897 14.4308 0 10.4009 0C4.54744 0 0 4.67394 0 10.4014C0 16.3733 4.78193 20.6787 10.4009 20.6787C14.4308 20.6787 18.0293 18.3478 19.2197 15.0283C19.2967 14.7988 19.3467 14.5458 19.3467 14.2928C19.3467 13.4063 18.7137 12.7978 17.8773 12.7978C17.4463 12.7978 17.0413 13.0008 16.7878 13.3553L16.5093 13.8358C15.4198 16.1678 13.1643 17.5108 10.4009 17.5108C6.42341 17.5108 3.30546 14.5713 3.30546 10.3399C3.30546 6.10692 6.42341 3.11696 10.4009 3.11696C13.1383 3.11696 15.2423 4.28344 16.4838 6.91841ZM10.4273 4.61267C9.51478 4.61267 8.77979 5.34716 8.77979 6.25965C8.77979 7.17214 9.51478 7.90663 10.4273 7.90663C11.3398 7.90663 12.1007 7.17214 12.1007 6.25965C12.1007 5.34716 11.3398 4.61267 10.4273 4.61267ZM10.4281 8.69282C9.54166 8.69282 8.83167 9.40231 8.83167 10.2893V14.4712C8.83167 15.3577 9.54166 16.0657 10.4281 16.0657C11.3406 16.0657 12.0506 15.3577 12.0506 14.4712V10.2893C12.0506 9.40231 11.3406 8.69282 10.4281 8.69282ZM46.3773 4.76056L46.0488 4.73056L45.7863 4.72406C44.8313 4.72406 44.1388 4.92306 43.7108 5.32355C43.2808 5.72304 43.0678 6.29304 43.0678 7.03353V8.56751L41.7078 8.947V9.85349H43.0678V15.8739H44.5428V9.85349H46.7062V8.56751H44.5428V7.06253C44.5428 6.72103 44.6578 6.47653 44.8868 6.33104C45.1158 6.18554 45.4148 6.11204 45.7863 6.11204C45.9893 6.11204 46.2017 6.12754 46.4212 6.15554C46.6407 6.18554 46.9982 6.27254 46.9982 6.27254V4.87006L46.7132 4.80506L46.3773 4.76056ZM37.6767 8.37696C37.3262 8.37696 36.9727 8.42746 36.6162 8.53146C36.2612 8.63296 35.9327 8.78046 35.6307 8.97595L35.4842 8.56696H34.4752V15.8734H35.9812V10.1154C36.1757 10.0184 36.4137 9.93594 36.6967 9.86744C36.9797 9.79944 37.3057 9.76494 37.6767 9.76494C38.0172 9.76494 38.2997 9.83594 38.5242 9.97694C38.7482 10.1179 38.8602 10.3599 38.8602 10.7004V15.8734H40.3657V10.7299C40.3657 9.98994 40.1442 9.41245 39.7007 8.99845C39.2572 8.58346 38.5827 8.37696 37.6767 8.37696ZM31.3383 5.12994C31.0583 5.12994 30.8183 5.22994 30.6198 5.42793C30.4204 5.62543 30.3219 5.86643 30.3219 6.14742C30.3219 6.42792 30.4204 6.66792 30.6198 6.86591C30.8183 7.06391 31.0583 7.16391 31.3383 7.16391C31.6193 7.16391 31.8588 7.06391 32.0578 6.86591C32.2568 6.66792 32.3553 6.42792 32.3553 6.14742C32.3553 5.86643 32.2568 5.62543 32.0578 5.42793C31.8588 5.22994 31.6193 5.12994 31.3383 5.12994ZM30.6057 15.8666L32.0821 15.8656V8.56617H30.6057V15.8666ZM91.775 5.12994C91.4935 5.12994 91.2545 5.22994 91.0551 5.42793C90.8571 5.62543 90.7581 5.86643 90.7581 6.14742C90.7581 6.42792 90.8571 6.66792 91.0551 6.86591C91.2545 7.06391 91.4935 7.16391 91.775 7.16391C92.055 7.16391 92.2945 7.06391 92.4915 6.86591C92.691 6.66792 92.7915 6.42792 92.7915 6.14742C92.7915 5.86643 92.691 5.62543 92.4915 5.42793C92.2945 5.22994 92.055 5.12994 91.775 5.12994ZM52.5185 13.1914C52.4895 13.4894 52.418 13.7484 52.3 13.9659C52.1835 14.1864 52.011 14.3594 51.789 14.4854C51.564 14.6114 51.2625 14.6759 50.883 14.6759C50.492 14.6759 50.1855 14.6114 49.9615 14.4854C49.737 14.3594 49.57 14.1864 49.4565 13.9659C49.3445 13.7484 49.275 13.4894 49.246 13.1914C49.2165 12.8954 49.202 12.5714 49.202 12.2209C49.202 11.8694 49.2165 11.5459 49.246 11.2489C49.275 10.9519 49.3445 10.6934 49.4565 10.4739C49.57 10.2539 49.737 10.0814 49.9615 9.95594C50.1855 9.82944 50.492 9.76494 50.883 9.76494C51.2625 9.76494 51.564 9.82944 51.789 9.95594C52.011 10.0814 52.1835 10.2539 52.3 10.4739C52.418 10.6934 52.4895 10.9519 52.5185 11.2489C52.549 11.5459 52.5625 11.8694 52.5625 12.2209C52.5625 12.5714 52.549 12.8954 52.5185 13.1914ZM53.462 9.44395C53.2325 9.10295 52.911 8.84045 52.497 8.65396C52.083 8.46996 51.5435 8.37696 50.883 8.37696C50.229 8.37696 49.695 8.46996 49.282 8.65396C48.868 8.84045 48.544 9.10295 48.309 9.44395C48.0765 9.78444 47.918 10.1889 47.8355 10.6569C47.753 11.1239 47.7105 11.6464 47.7105 12.2209C47.7105 12.7864 47.753 13.3049 47.8355 13.7764C47.918 14.2499 48.0765 14.6564 48.309 14.9974C48.544 15.3389 48.868 15.6019 49.282 15.7864C49.695 15.9709 50.229 16.0634 50.883 16.0634C51.5435 16.0634 52.083 15.9709 52.497 15.7864C52.911 15.6019 53.2325 15.3389 53.462 14.9974C53.6905 14.6564 53.8464 14.2499 53.9284 13.7764C54.0114 13.3049 54.0534 12.7864 54.0534 12.2209C54.0534 11.6464 54.0114 11.1239 53.9284 10.6569C53.8464 10.1889 53.6905 9.78444 53.462 9.44395ZM81.3851 6.31705L79.9092 6.72555V8.56702L78.5512 8.94652V9.85301H79.9092V14.0189C79.9092 14.3779 79.9807 14.6874 80.1222 14.9464C80.2627 15.2034 80.4467 15.4169 80.6692 15.5804C80.8937 15.7474 81.1496 15.8704 81.4376 15.9464C81.7236 16.0244 82.0186 16.0634 82.3206 16.0634L82.6936 16.0569L83.2421 15.9759V14.6164L82.8831 14.6594L82.4376 14.6759C82.1171 14.6759 81.8606 14.6224 81.6711 14.5149C81.4806 14.4064 81.3851 14.1984 81.3851 13.886V9.85301H83.5501V8.56702H81.3851V6.31705ZM88.3551 8.37696C87.6236 8.37696 86.9431 8.57596 86.3091 8.97595L86.1626 8.56696H85.1551V15.8734H86.6606V10.1154C86.8746 10.0184 87.1136 9.93594 87.3766 9.86744C87.6391 9.79944 87.9666 9.76494 88.3551 9.76494L88.8665 9.82394L89.437 9.98444V8.49296L88.8951 8.40546L88.3551 8.37696ZM96.3035 10.4964C96.4295 10.2719 96.6045 10.0949 96.83 9.96294C97.0535 9.83094 97.3445 9.76494 97.707 9.76494C98.164 9.76494 98.5705 9.80344 98.927 9.88194C99.282 9.95994 99.6405 10.0619 100 10.1889V8.80046C99.66 8.63446 99.2765 8.52296 98.8525 8.46446C98.4295 8.40546 98.046 8.37696 97.707 8.37696C97.093 8.37696 96.576 8.46996 96.1571 8.65396C95.7386 8.84045 95.4026 9.10095 95.1486 9.43645C94.8946 9.77194 94.7161 10.1764 94.6076 10.6484C94.5001 11.1224 94.4476 11.6464 94.4476 12.2209C94.4476 12.7949 94.5001 13.3184 94.6076 13.7919C94.7161 14.2629 94.8946 14.6669 95.1486 15.0039C95.4026 15.3389 95.7386 15.6019 96.1571 15.7864C96.576 15.9709 97.093 16.0634 97.707 16.0634C98.046 16.0634 98.4295 16.0334 98.8525 15.9759C99.2765 15.9169 99.66 15.8069 100 15.6389V14.2529C99.6405 14.3779 99.282 14.4814 98.927 14.5579C98.5705 14.6369 98.164 14.6759 97.707 14.6759C97.3445 14.6759 97.0535 14.6104 96.83 14.4784C96.6045 14.3469 96.4295 14.1679 96.3035 13.9454C96.177 13.7199 96.0891 13.4609 96.0401 13.1634C95.9921 12.8664 95.9671 12.5519 95.9671 12.2209C95.9671 11.8909 95.9921 11.5764 96.0401 11.2784C96.0891 10.9804 96.177 10.7194 96.3035 10.4964ZM91.0419 15.8666L92.5173 15.8656V8.56617H91.0419V15.8666ZM59.0677 8.37696C58.4543 8.37696 57.9388 8.46996 57.5198 8.65396C57.0998 8.84045 56.7648 9.10095 56.5108 9.43645C56.2583 9.77194 56.0763 10.1764 55.9693 10.6484C55.8638 11.1224 55.8098 11.6464 55.8098 12.2209C55.8098 12.7949 55.8638 13.3184 55.9693 13.7919C56.0763 14.2629 56.2583 14.6669 56.5108 15.0039C56.7648 15.3389 57.0998 15.6019 57.5198 15.7864C57.9388 15.9709 58.4543 16.0634 59.0677 16.0634C59.4092 16.0634 59.7922 16.0334 60.2162 15.9759C60.6397 15.9169 61.0207 15.8069 61.3627 15.6389V14.2529C61.0022 14.3779 60.6447 14.4814 60.2892 14.5579C59.9337 14.6369 59.5267 14.6759 59.0677 14.6759C58.7082 14.6759 58.4163 14.6104 58.1908 14.4784C57.9673 14.3469 57.7923 14.1679 57.6663 13.9454C57.5383 13.7199 57.4513 13.4609 57.4028 13.1634C57.3538 12.8664 57.3293 12.5519 57.3293 12.2209C57.3293 11.8909 57.3538 11.5764 57.4028 11.2784C57.4513 10.9804 57.5383 10.7194 57.6663 10.4964C57.7923 10.2719 57.9673 10.0949 58.1908 9.96294C58.4163 9.83094 58.7082 9.76494 59.0677 9.76494C59.5267 9.76494 59.9337 9.80344 60.2892 9.88194C60.6447 9.95994 61.0022 10.0619 61.3627 10.1889V8.80046C61.0207 8.63446 60.6397 8.52296 60.2162 8.46446C59.7922 8.40546 59.4092 8.37696 59.0677 8.37696ZM64.5463 11.6224C64.5753 11.3574 64.6223 11.1134 64.6858 10.8914C64.7493 10.6674 64.8458 10.4689 64.9778 10.2989C65.1098 10.1289 65.2803 9.99694 65.4903 9.90394C65.6983 9.81244 65.9593 9.76494 66.2708 9.76494C66.5733 9.76494 66.8118 9.81644 66.9868 9.91844C67.1623 10.0214 67.3968 10.3269 67.3968 10.3269C67.3968 10.3269 67.5568 10.6959 67.5873 10.9199C67.6153 11.1449 67.6293 11.3779 67.6293 11.6224H64.5463ZM68.6838 9.53145C68.4778 9.18045 68.1858 8.90146 67.8068 8.69046C67.4258 8.48196 66.9153 8.37696 66.2708 8.37696C65.6583 8.37696 65.1418 8.46996 64.7218 8.65396C64.3028 8.84045 63.9673 9.10095 63.7133 9.43645C63.4603 9.77194 63.2803 10.1764 63.1733 10.6484C63.0658 11.1224 63.0118 11.6464 63.0118 12.2209C63.0118 12.7949 63.0658 13.3184 63.1733 13.7919C63.2803 14.2629 63.4603 14.6669 63.7133 15.0039C63.9673 15.3389 64.3028 15.6019 64.7218 15.7864C65.1418 15.9709 65.6583 16.0634 66.2708 16.0634C66.6223 16.0634 67.0118 16.0334 67.4408 15.9759C67.8693 15.9169 68.3168 15.7794 68.7843 15.5674V14.1484C68.3363 14.3439 67.9233 14.4814 67.5433 14.5579C67.1623 14.6369 66.7383 14.6759 66.2708 14.6759C65.9788 14.6759 65.7308 14.6319 65.5268 14.5439C65.3208 14.4564 65.1538 14.3349 65.0218 14.1779C64.8908 14.0234 64.7873 13.8379 64.7143 13.6234C64.6418 13.4094 64.5903 13.1749 64.5618 12.9229H69.1798V12.2209C69.1798 11.7044 69.1478 11.2149 69.0853 10.7524C69.0208 10.2894 68.8878 9.88194 68.6838 9.53145ZM74.5175 8.37696C74.166 8.37696 73.8135 8.42746 73.458 8.53146C73.1015 8.63296 72.7725 8.78046 72.4706 8.97595L72.3241 8.56696H71.3156V15.8734H72.8216V10.1154C73.0155 10.0184 73.254 9.93594 73.538 9.86744C73.8205 9.79944 74.1465 9.76494 74.5175 9.76494C74.8575 9.76494 75.1415 9.83594 75.365 9.97694C75.589 10.1179 75.701 10.3599 75.701 10.7004V15.8734H77.206V10.7299C77.206 9.98994 76.9855 9.41245 76.541 8.99845C76.0985 8.58346 75.423 8.37696 74.5175 8.37696Z"></path>
                                    ¥</svg>