<svg xmlns="http://www.w3.org/2000/svg" width="454.4735" height="293.5567" viewBox="0 0 454.4735 293.5567"><title>Leica Geosystems</title><defs><clipPath id="a"><path d="M298.205 93.543V35.581h253.37v57.962"/></clipPath></defs><path d="M146.8504 1.0197c-8.5671.2695-17.1751 3.2419-24.0119 7.6687-28.3013 14.9804-32.641 47.023-40.7322 74.1729-8.604.2566-16.9315-2.3686-24.5148-4.1487-1.5086 2.796-2.7506 5.8835-3.2686 8.9259 8.0911 2.796 16.1621 5.6522 25.269 6.1601-3.535 15.9861-8.8806 31.1627-14.4574 45.8866-1.76 3.0474-2.0014 7.4022-5.0286 9.6802-15.9208-3.8067-36.6289-9.1472-51.7953.2514-4.8125 3.5503-7.5682 8.6091-7.2916 14.4574.7443 7.8649 5.7478 13.673 12.5717 17.2232 21.4774 10.4044 47.5611 3.0122 65.247-9.9316 13.6578 4.8175 27.0693 9.635 40.9836 13.7031 42.7085 11.4151 86.6239 21.6384 133.6369 20.1147v.2514c68.2642-.2614 135.5578-10.6607 199.0095-27.1548l1.0058-.7543-2.64-9.9316c-25.5306 5.8282-51.7903 10.6658-78.573 13.2003-52.8362 3.3038-105.577 4.8174-157.9002 1.0057-43.4729-3.0423-84.4163-12.1995-124.3338-24.6405 13.1298-19.2799 17.8216-42.4067 24.8919-64.744 23.001-3.5503 43.0604-17.4244 54.6867-37.4637 5.5517-11.42 11.1033-26.4105 4.7773-39.3493-2.0165-4.0682-5.0086-6.6278-8.5488-9.6802-5.6387-3.6586-12.3199-5.1125-18.9832-4.903zm3.7715 13.8288c3.0323.2514 6.0193-.0362 8.2973 2.5143 6.8189 6.5826 4.7974 18.5407 1.5086 26.4006-7.0753 18.5356-23.9163 32.0125-42.3665 36.835 4.2945-18.5257 8.5185-36.815 17.0975-53.5554 3.3038-5.3304 8.3827-11.6816 15.4631-12.1945zm99.819 35.8293c-6.3488-.0467-11.701 2.1516-15.463 7.0401-2.263 3.2938-2.7658 9.1472-.2515 12.6974 3.0423 4.3146 8.1515 6.0243 13.2002 6.5373 7.0905.4978 15.6895-.9454 19.4861-7.7945 2.0065-3.2988 1.5237-7.885-.5028-11.1888-3.2787-4.571-8.6443-5.8986-13.7032-7.1658-.9479-.0958-1.8588-.119-2.7657-.1255zm-73.5442 36.9607c-9.3829-.1283-19.0737 1.858-26.7777 4.7772-14.6636 5.5919-27.532 21.3467-27.532 38.0922.2567 9.64 5.9993 17.55 13.5775 22.629 25.0226 14.719 56.2004 2.7507 78.6986-9.1773.2414.2566.7644.5079.503.7543 1.0207 7.1105 7.7592 13.4265 14.3316 14.9603 17.198 2.5344 32.611-4.551 45.5095-14.9603 5.3052 9.8964 16.665 14.9603 28.0348 15.966l.2514-.2514c15.6694.5028 28.8696-6.829 40.2294-16.469 3.5402 7.3721 9.65 12.1745 16.4689 15.2118 13.145 4.3096 26.9738.0805 36.835-9.303 1.242 3.5502 4.5258 6.7685 7.543 8.8001 14.9351 7.1005 30.886-1.6896 42.2408-9.303-.2462-3.2988-1.2622-6.6328-2.5143-9.6802-4.8125 2.5345-11.4 6.321-16.7204 2.263-.9906-1.5238-1.75-2.9972-1.5086-5.0288l12.9489-46.0123c-9.102-.2514-18.943-.5129-28.5377-.2514l-2.263 7.1658c-1.2571-1.775-2.7506-3.6407-4.5257-5.1543-9.8613-7.1056-24.0773-4.8125-34.4464-.503-15.6543 7.6185-28.0198 22.076-28.2863 40.3552-8.3325 7.3468-19.1642 15.7598-31.052 10.9373-5.8282-3.3038-5.6673-11.1335-4.6515-17.2232 1.77-9.64 4.8627-20.336 14.4574-24.6405 6.321-2.806 12.4158 1.3427 16.9717 5.4059 1.2622-4.3146 2.7708-8.6343 3.5201-13.2003-12.8885-8.3727-32.8674-5.8383-45.5094 1.5086-13.145 7.88-24.2784 21.4674-23.2576 38.2179-2.283 2.283-5.0136 4.1285-7.7945 5.6572-4.2995 2.0216-10.6557 5.5668-15.2117 1.2572-1.0057-1.5187-1.2572-3.2485-1.2572-5.28 4.043-14.9604 8.3778-30.2878 12.446-45.2581-10.6155 0-21.8194-.2567-31.932.2514l-11.566 40.1037c-8.5789 5.8382-18.1736 9.9014-28.0348 12.446-9.6148 2.2779-22.0809 4.3396-30.172-2.263-2.283-2.5344-3.0122-6.13-2.263-9.6802 16.9417 1.5237 35.3969-.7593 46.0124-13.2002 3.0373-4.8175 5.3052-11.6414 2.7658-17.4747l-2.5144-4.0229c-6.57-5.9665-15.6347-8.2948-25.0176-8.423zm.5029 9.1773c2.5262.0941 4.7671 1.1063 5.783 3.7715 1.2722 6.6027-1.7199 13.165-7.2916 17.4746-5.3053 3.0474-11.9029 4.6717-18.4804 3.3944 2.7859-8.3627 5.3606-17.545 12.6974-23.1319 2.014-.7593 4.7653-1.6029 7.2916-1.5086zm216.2327 3.6458c3.5802-.0732 6.4072 1.7336 8.1716 4.4 3.5653 10.153-2.7557 19.275-5.0287 28.412-2.0315 5.3304-6.7434 10.9223-13.0745 12.446-3.2837.2514-6.658-.9856-8.423-3.7715-3.7866-10.4043 1.6092-20.537 4.6515-29.9206 2.7758-5.0739 6.5172-9.4036 12.0688-11.4402.5368-.0937 1.1228-.1154 1.6343-.1255zM26.2881 157.034c7.9977-.5464 16.3645 3.1832 23.7604 5.2801l1.76.7543c-7.8447 7.367-20.5521 12.8634-32.1834 8.0459-2.0165-1.2723-4.7772-3.2435-4.7772-6.0344.2667-2.5445 1.5186-4.6314 3.52-5.9087 2.527-1.3301 5.2543-1.955 7.9202-2.1372zm53.4296 67.1327c-18.1585 0-21.6535 13.663-24.5148 27.1549-4.2794 20.2102-3.8419 27.909 14.8346 27.909 4.4202 0 12.2096-1.1666 15.3374-1.76l5.783-26.9033H73.9347l-1.6343 8.0458h6.0344l-2.5143 11.9431c-1.8154.5884-3.9325 1.0057-5.783 1.0057-6.321 0-7.2916-2.9518-3.7715-19.6118 2.2025-10.369 4.1336-19.8632 11.063-19.8632 5.8786 0 5.773 4.4554 4.6516 9.4287h11.063c3.0424-11.1887-2.449-17.3489-13.326-17.3489zm206.5525 6.4116l-11.3145 4.6515-1.2571 5.9087h-4.1487l-1.3829 6.4115h4.2744l-4.903 22.8805c-.4877 2.283-.528 8.2973 8.423 8.2973 2.4893 0 3.9576-.2313 5.4059-.377l1.3829-6.4115c-.5582.156-1.222.1255-1.8858.1255-3.3692 0-2.982-1.8505-2.3886-4.6515l4.2744-19.8633h5.4058l1.2572-6.4115h-5.2801l2.1371-10.5602zm-169.5918 9.8059c-13.6428 0-16.9617 8.6996-19.109 18.8575-2.464 11.6464-2.4137 19.8632 10.9374 19.8632 4.8175 0 8.8002-1.3527 11.6917-3.6457 2.992-2.3032 5.0236-5.617 6.0344-9.6802h-10.5602c-.6588 3.0876-2.1171 6.663-5.783 6.663-4.5258 0-3.3089-6.643-2.3886-11.0631h19.8632c2.8814-11.933 3.2385-20.9947-10.686-20.9947zm36.835 0c-13.6428 0-16.9617 8.6946-19.109 18.8575-2.479 11.6363-2.5294 19.8632 10.8117 19.8632 13.341 0 16.9114-8.2269 19.3604-19.8632 2.1573-10.163 2.5746-18.8575-11.0631-18.8575zm34.9492 0c-6.668 0-15.1312 2.5043-16.846 10.5602-2.4992 11.8425 16.132 10.0724 14.4574 17.9775-.533 2.5093-2.4892 3.7715-4.5258 3.7715-2.0668 0-3.0725-.5783-3.3943-1.76-.2716-1.1717-.0503-2.8262.377-4.5258h-10.1831c-2.786 10.3992 2.7858 12.6973 11.8173 12.6973 8.594 0 14.9704-4.8275 16.3432-11.3145 2.5445-11.923-15.8252-11.6916-14.5831-17.6003.533-2.5043 2.1372-3.8972 4.4-3.8972 1.0762 0 1.9914.0804 2.5144.7543.5984.6587.543 2.1875 0 4.7772h10.0573c2.2931-8.0509-3.3893-11.4402-10.4345-11.4402zm65.3727 0c-6.658 0-15.1363 2.5043-16.846 10.5602-2.5143 11.8425 16.127 10.0724 14.4574 17.9775-.533 2.5093-2.6099 3.7715-4.6515 3.7715-2.0718 0-3.0574-.5783-3.3944-1.76-.2614-1.1717.0704-2.8262.503-4.5258h-10.1831c-2.786 10.3992 2.7708 12.6973 11.8173 12.6973 8.579 0 14.8346-4.8275 16.2175-11.3145 2.5244-11.923-15.7045-11.6916-14.4574-17.6003.533-2.5043 2.122-3.8972 4.4-3.8972 1.0661 0 1.8707.0804 2.3887.7543.6185.6587.5531 2.1875 0 4.7772h10.183c2.293-8.0509-3.3843-11.4402-10.4345-11.4402zm54.8125 0c-13.6428 0-16.9717 8.6996-19.109 18.8575-2.464 11.6464-2.4087 19.8632 10.9374 19.8632 4.8326 0 8.7851-1.3527 11.6917-3.6457 2.982-2.3032 4.913-5.617 5.9087-9.6802H307.642c-.6537 3.0876-2.1372 6.663-5.783 6.663-4.551 0-3.3139-6.643-2.3886-11.0631h19.8632c2.8966-11.933 3.2435-20.9947-10.6859-20.9947zm40.858 0c-3.9023 0-6.8944 1.2018-9.6802 4.5258H339.7l.7543-3.7715h-10.3087l-7.9202 37.2121H332.66l5.4058-25.6462c.709-3.3088 1.8355-5.9087 5.1544-5.9087 3.319 0 3.344 2.5999 2.64 5.9087l-5.4058 25.6462h10.1831l5.4058-25.6462c.699-3.3088 1.8355-5.9087 5.1544-5.9087 3.324 0 3.3491 2.5999 2.64 5.9087l-5.4058 25.6462h10.3088l6.2858-29.7948c1.1064-5.1645-2.6199-8.1716-7.543-8.1716-4.2592 0-7.4323 1.5237-10.5602 4.7772-1.071-2.9619-3.7312-4.7772-7.4172-4.7772zm47.2694 0c-6.678 0-15.1363 2.5043-16.846 10.5602-2.4942 11.8425 16.122 10.0724 14.4574 17.9775-.538 2.5093-2.5998 3.7715-4.6515 3.7715-2.0567 0-3.0625-.5783-3.3944-1.76-.2514-1.1717.0556-2.8262.503-4.5258h-10.1831c-2.7809 10.3992 2.7708 12.6973 11.8173 12.6973 8.589 0 14.9452-4.8275 16.3432-11.3145 2.5244-11.923-15.8403-11.6916-14.5831-17.6003.533-2.5043 2.1422-3.8972 4.4-3.8972 1.0712 0 1.8657.0804 2.3887.7543.6135.6587.538 2.1875 0 4.7772h10.183c2.288-8.0509-3.4094-11.4402-10.4345-11.4402zm-191.718.7543l2.1372 37.5893-6.9144 13.8288h10.8116l25.2691-51.4181h-10.0573l-11.0631 26.149h-.1255l.2514-26.149h-10.3088zm-89.7617 5.6572c4.8929 0 3.6508 5.1947 2.8915 8.8002h-9.4288c.6739-3.163 1.7752-8.8002 6.5373-8.8002zm191.9694 0c4.903 0 3.6458 5.1947 2.8915 8.8002h-9.4287c.6738-3.163 1.77-8.8002 6.5372-8.8002zm-155.2601.2515c4.39 0 4.0129 3.9626 2.3886 11.6916-2.4087 11.3397-3.857 13.7032-7.6687 13.7032-3.8067 0-4.2794-2.3635-1.8858-13.7032 1.6394-7.729 2.7658-11.6916 7.1659-11.6916z" fill="currentColor"/></svg>