<?xml version="1.0" encoding="UTF-8"?>
<svg width="60px" height="115px" viewBox="0 0 60 115" version="1.1" xmlns="http://www.w3.org/2000/svg" xmlns:xlink="http://www.w3.org/1999/xlink">
    <!-- Generator: Sketch 60.1 (88133) - https://sketch.com -->
    <title>Group</title>
    <desc>Created with Sketch.</desc>
    <defs>
        <filter x="-14.3%" y="-7.0%" width="128.6%" height="113.9%" filterUnits="objectBoundingBox" id="filter-1">
            <feOffset dx="0" dy="2" in="SourceAlpha" result="shadowOffsetOuter1"></feOffset>
            <feGaussianBlur stdDeviation="1" in="shadowOffsetOuter1" result="shadowBlurOuter1"></feGaussianBlur>
            <feColorMatrix values="0 0 0 0 0   0 0 0 0 0   0 0 0 0 0  0 0 0 0.5 0" type="matrix" in="shadowBlurOuter1" result="shadowMatrixOuter1"></feColorMatrix>
            <feMerge>
                <feMergeNode in="shadowMatrixOuter1"></feMergeNode>
                <feMergeNode in="SourceGraphic"></feMergeNode>
            </feMerge>
        </filter>
        <circle id="path-2" cx="28" cy="28" r="19"></circle>
    </defs>
    <g id="Page-1" stroke="none" stroke-width="1" fill="none" fill-rule="evenodd">
        <g id="Group" filter="url(#filter-1)" transform="translate(2.000000, 0.000000)">
            <g id="Pin-Icon">
                <path d="M27.6989247,0 C43.3548387,0 55.3978495,12.0430108 55.3978495,26.4946237 C55.3978495,36.7311828 40.9462366,58.4086022 32.516129,71.655914 C30.1075269,75.2688172 25.2903226,75.2688172 23.483871,71.655914 C14.4516129,58.4086022 0,36.7311828 0,26.4946237 C0,12.0430108 12.6451613,0 27.6989247,0 Z M27.6989245,6.634409 C39.5402296,6.634409 49.16129,16.2554694 49.16129,28.0967745 C49.16129,39.9380796 39.5402296,49.55914 27.6989245,49.55914 C15.8576194,49.55914 6.236559,39.9380796 6.236559,28.0967745 C6.236559,16.2554694 15.8576194,6.634409 27.6989245,6.634409 Z" id="Shape" fill="#F0008C"></path>
                <text id="OASA-LIVE" font-family="NovaMonoForPowerline, NovaMono for Powerline" font-size="14" font-weight="normal" letter-spacing="0.311111116" fill="#333333">
                    <tspan x="11.6551215" y="92">OASA</tspan>
                    <tspan x="11.6551215" y="111">LIVE</tspan>
                </text>
            </g>
            <mask id="mask-3" fill="white">
                <use xlink:href="#path-2"></use>
            </mask>
            <use id="Oval" fill="#F0008C" xlink:href="#path-2"></use>
            <g id="Bus-Icon" mask="url(#mask-3)" fill="#FFFFFF" fill-rule="nonzero">
                <g transform="translate(17.000000, 13.000000)">
                    <path d="M20.3358318,8.55555542 L0.913358795,8.55555542 C0.692513851,8.55555542 0.51348435,8.37158897 0.51348435,8.14465396 L0.51348435,5.14853661 C0.51348435,4.02507331 1.50437322,3.11111106 2.72227653,3.11111106 L18.526857,3.11111106 C19.7448174,3.11111106 20.7357063,4.02507331 20.7357063,5.14853661 L20.7357063,8.14465396 C20.7357063,8.37158897 20.5566768,8.55555542 20.3358318,8.55555542 Z M1.31323324,7.7337525 L19.9359574,7.7337525 L19.9359574,5.14853661 C19.9359574,4.47823892 19.3038701,3.93291398 18.526857,3.93291398 L2.72227653,3.93291398 C1.94532049,3.93291398 1.31323324,4.47823892 1.31323324,5.14853661 L1.31323324,7.7337525 Z" id="Shape"></path>
                    <path d="M20.3358318,24.1111107 L0.913358795,24.1111107 C0.692513851,24.1111107 0.51348435,23.9316588 0.51348435,23.7102927 L0.51348435,8.17859565 C0.51348435,7.9572296 0.692513851,7.77777766 0.913358795,7.77777766 L20.3358318,7.77777766 C20.5566768,7.77777766 20.7357063,7.9572296 20.7357063,8.17859565 L20.7357063,23.7102927 C20.7357063,23.9316588 20.5566768,24.1111107 20.3358318,24.1111107 Z M1.31323324,23.3094748 L19.9359574,23.3094748 L19.9359574,8.57941364 L1.31323324,8.57941364 L1.31323324,23.3094748 Z" id="Shape"></path>
                    <path d="M5.24668247,27.9999996 L4.3357891,27.9999996 C3.51476058,27.9999996 2.84681765,27.198468 2.84681765,26.2132338 L2.84681765,23.7747744 C2.84681765,23.5309726 3.01151734,23.333333 3.21468551,23.333333 L6.36783861,23.333333 C6.57100678,23.333333 6.73570648,23.5309726 6.73570648,23.7747744 L6.73570648,26.2132338 C6.73570648,27.198468 6.06776354,27.9999996 5.24668247,27.9999996 Z M3.58255337,24.2162158 L3.58255337,26.2132338 C3.58255337,26.7116212 3.92046628,27.1171167 4.3357891,27.1171167 L5.24668247,27.1171167 C5.66205784,27.1171167 5.99997075,26.7116212 5.99997075,26.2132338 L5.99997075,24.2162158 L3.58255337,24.2162158 Z" id="Shape"></path>
                    <path d="M17.6911793,27.9999996 L16.7802333,27.9999996 C15.9592048,27.9999996 15.2912619,27.198468 15.2912619,26.2132338 L15.2912619,23.7747744 C15.2912619,23.5309726 15.4559616,23.333333 15.6591298,23.333333 L18.8122829,23.333333 C19.015451,23.333333 19.1801507,23.5309726 19.1801507,23.7747744 L19.1801507,26.2132338 C19.1801507,27.198468 18.5122078,27.9999996 17.6911793,27.9999996 Z M16.0269976,24.2162158 L16.0269976,26.2132338 C16.0269976,26.7116212 16.3649105,27.1171167 16.7802333,27.1171167 L17.6911793,27.1171167 C18.1065021,27.1171167 18.444415,26.7116212 18.444415,26.2132338 L18.444415,24.2162158 L16.0269976,24.2162158 Z" id="Shape"></path>
                    <path d="M20.3358318,18.6666664 L0.913358795,18.6666664 C0.692513851,18.6666664 0.51348435,18.4925553 0.51348435,18.2777775 C0.51348435,18.0629997 0.692513851,17.8888886 0.913358795,17.8888886 L20.3358318,17.8888886 C20.5566768,17.8888886 20.7357063,18.0629997 20.7357063,18.2777775 C20.7357063,18.4925553 20.5566768,18.6666664 20.3358318,18.6666664 Z" id="Path"></path>
                    <path d="M4.40237318,22.5555552 C3.54462834,22.5555552 2.84681765,21.8577445 2.84681765,20.9999997 C2.84681765,20.1422548 3.54462834,19.4444441 4.40237318,19.4444441 C5.26011802,19.4444441 5.95792871,20.1422548 5.95792871,20.9999997 C5.95792871,21.8577445 5.26011802,22.5555552 4.40237318,22.5555552 Z M4.40237318,20.2510285 C3.98940199,20.2510285 3.653402,20.5870285 3.653402,20.9999997 C3.653402,21.4129709 3.98940199,21.7489709 4.40237318,21.7489709 C4.81534437,21.7489709 5.15134436,21.4129709 5.15134436,20.9999997 C5.15134436,20.5870285 4.81534437,20.2510285 4.40237318,20.2510285 Z" id="Shape"></path>
                    <path d="M17.6245952,22.5555552 C16.7668504,22.5555552 16.0690397,21.8577445 16.0690397,20.9999997 C16.0690397,20.1422548 16.7668504,19.4444441 17.6245952,19.4444441 C18.48234,19.4444441 19.1801507,20.1422548 19.1801507,20.9999997 C19.1801507,21.8577445 18.48234,22.5555552 17.6245952,22.5555552 Z M17.6245952,20.2510285 C17.211624,20.2510285 16.875624,20.5870285 16.875624,20.9999997 C16.875624,21.4129709 17.211624,21.7489709 17.6245952,21.7489709 C18.0375664,21.7489709 18.3735664,21.4129709 18.3735664,20.9999997 C18.3735664,20.5870285 18.0375664,20.2510285 17.6245952,20.2510285 Z" id="Shape"></path>
                    <path d="M14.1183228,6.22222212 L7.90864552,6.22222212 C7.69040359,6.22222212 7.51348424,6.04811102 7.51348424,5.83333324 C7.51348424,5.61855547 7.69040359,5.44444436 7.90864552,5.44444436 L14.1183228,5.44444436 C14.3365648,5.44444436 14.5134842,5.61855547 14.5134842,5.83333324 C14.5134842,6.04811102 14.3365648,6.22222212 14.1183228,6.22222212 Z" id="Path"></path>
                    <path d="M10.2133978,13.222222 C10.0666659,13.222222 9.92820494,13.1146112 9.87182595,12.9387515 C9.79848615,12.7100071 9.89192765,12.4524394 10.0805381,12.3634938 L14.7918743,10.1414408 C14.9804848,10.0524952 15.1929137,10.1658199 15.2662535,10.3945644 C15.3395933,10.6233089 15.2461518,10.8808766 15.0575413,10.9698222 L10.3462051,13.1918751 C10.3025468,13.212445 10.2575797,13.222222 10.2133978,13.222222 Z" id="Path"></path>
                    <path d="M7.88006597,17.1111108 C7.73333344,17.1111108 7.59487196,17.0035013 7.53849275,16.8276438 C7.46515266,16.5988386 7.55859453,16.3413375 7.74720576,16.2523295 L12.4585605,14.0303033 C12.6471717,13.9414222 12.8595491,14.0546821 12.9329416,14.2834238 C13.0062293,14.512229 12.9128398,14.7697301 12.7242285,14.8587381 L8.01287382,17.0807643 C7.96921527,17.1013974 7.924248,17.1111108 7.88006597,17.1111108 Z" id="Path"></path>
                    <path d="M7.91680522,3.88888883 C7.81356243,3.88888883 7.71037724,3.84948051 7.63162004,3.7707791 C7.47410564,3.61331867 7.47410564,3.35791358 7.63162004,3.20045315 L9.93614675,0.89587309 C10.0936035,0.738412657 10.3490027,0.738412657 10.5064595,0.89587309 C10.6639739,1.05333352 10.6639739,1.30873861 10.5064595,1.46619904 L8.20193279,3.7707791 C8.1232332,3.84948051 8.02004802,3.88888883 7.91680522,3.88888883 Z" id="Path"></path>
                    <path d="M11.7916144,3.88888883 C11.670284,3.88888883 11.5507313,3.82697153 11.4748442,3.71073228 C11.3500139,3.51957248 11.3904574,3.25391749 11.5652865,3.11738346 L15.4540816,0.0792430691 C15.6286885,-0.0572301972 15.8716826,-0.0130556359 15.9965685,0.178104157 C16.1213988,0.369263951 16.0809554,0.634918946 15.9061262,0.771452975 L12.0173311,3.80959336 C11.9488328,3.86318616 11.8698347,3.88888883 11.7916144,3.88888883 Z" id="Path"></path>
                </g>
            </g>
        </g>
    </g>
</svg>