<svg height="219.8999" width="651.2999" viewBox="0 0 651.2999 219.8999"><title>Otto</title><defs><clipPath id="a" clipPathUnits="userSpaceOnUse"><path d="M0 175.785V0h520.95v175.785"/></clipPath></defs><g clip-path="url(#a)" transform="matrix(1.25 0 0 -1.25 0 219.8999)"><path d="M471.711 99.237l-.475-5.671c-3.308-40.638-16.537-53.162-32.84-53.162-14.652 0-25.05 9.923-22.922 36.385l.473 5.91c3.31 40.404 16.538 53.163 32.841 53.163 14.416 0 25.049-10.163 22.923-36.625m-366.236 0L105 93.566c-3.304-40.638-16.538-53.162-32.841-53.162-14.651 0-25.044 9.923-22.918 36.385l.469 5.91c3.311 40.404 16.543 53.163 32.847 53.163 14.411 0 25.044-10.163 22.918-36.625m348.04 76.555c-25.957 0-47.071-8.002-61.989-24.567 2.125 5.751 3.245 12.763 3.391 21.023H303.95c-19.847 0-31.189-8.741-38.986-31.189l4.018 31.189h-91.915c-16.827 0-28.38-8.046-32.554-23.803-11.39 18.254-31.629 27.347-57.233 27.347-48.671 0-80.334-28.119-86.005-88.131l-.709-7.562C-4.396 26.461 23.723 0 67.432 0c48.675 0 80.339 28.353 86.009 88.37l.709 7.558c1.279 13.763.345 25.723-2.472 35.916h41.219l-11.811-101.13c-2.366-20.082 8.506-29.297 26.696-29.297 11.107 0 14.886.709 19.139 1.417l14.651 129.01h47.966l-11.815-101.13c-2.362-20.082 8.506-29.297 26.701-29.297 11.102 0 14.886.709 19.139 1.417l14.646 129.01h23.631c8.175 0 14.777 1.9 19.873 5.656-7.44-13.109-12.296-29.664-14.203-49.839l-.708-7.562C361.84 26.461 389.955 0 433.667 0c48.677 0 80.334 28.353 86.006 88.37l.709 7.558c4.963 53.402-23.153 79.864-66.867 79.864" fill="currentColor"/></g></svg>