<svg xmlns="http://www.w3.org/2000/svg" width="111" height="27" viewBox="0 0 111 27">
  <g fill="none" fill-rule="evenodd">
    <path fill="#00765A" d="M26.044,21.753 L26.044,19.235 C25.373,19.182 24.834,19.159 24.244,19.159 C22.882,19.159 21.39,19.39 21.39,21.19 C21.39,22.242 22.239,22.681 23.267,22.681 C24.192,22.681 25.117,22.371 26.044,21.753 Z M24.937,8.334 C28.716,8.334 31.853,9.93 31.853,15.482 L31.853,26.77 L26.916,26.77 L26.402,24.968 C25.066,25.917 23.498,27 21.39,27 C18.587,27 16.019,25.483 16.019,21.753 C16.019,17.718 19.128,15.482 23.138,15.482 C24.192,15.482 25.092,15.559 26.044,15.586 L26.044,14.915 C26.044,13.295 25.554,12.629 23.063,12.629 C21.697,12.629 19.616,12.936 18.074,13.243 L17.38,9.158 C19.693,8.642 22.342,8.334 24.937,8.334 Z M54.786,12.757 L54.786,8.564 L62.91,8.564 L62.91,26.77 L57.024,26.77 L57.024,12.757 L54.786,12.757 Z M59.774,0.083 C61.601,0.083 63.142,1.547 63.142,3.371 C63.142,5.198 61.675,6.639 59.851,6.639 C58.023,6.639 56.587,5.198 56.587,3.371 C56.587,1.547 57.951,0.083 59.774,0.083 Z M10.053,15.996 C13.445,17.255 14.215,19.364 14.215,21.472 C14.215,24.84 11.75,26.976 6.916,26.976 C4.549,26.976 1.747,26.512 0.178,26.15 L0.951,21.883 C2.363,22.114 4.706,22.655 6.402,22.655 C7.378,22.655 8.51,22.524 8.51,21.546 C8.51,20.751 8.047,20.545 6.452,19.957 L4.677,19.312 C1.696,18.232 1.59872116e-14,16.973 1.59872116e-14,13.991 C1.59872116e-14,10.314 2.828,8.23 6.506,8.23 C9.23,8.23 11.879,8.798 13.419,9.158 L12.726,13.243 C11.338,12.936 9,12.446 7.429,12.446 C6.272,12.446 5.656,12.808 5.656,13.528 C5.656,14.376 6.528,14.684 7.973,15.224 L10.053,15.996 Z M47.021,8.259 C50.236,8.259 52.136,10.032 52.136,14.506 L52.136,26.77 L46.276,26.77 L46.276,15.661 C46.276,13.912 45.505,13.554 44.375,13.554 C43.268,13.554 41.88,14.245 41.185,14.966 L41.185,26.77 L35.324,26.77 L35.324,8.564 L39.953,8.564 L40.491,10.749 C41.984,9.697 44.015,8.259 47.021,8.259 Z"/>
    <path fill="#5BAC26" d="M88.31,21.753 L88.31,19.235 C87.643,19.182 87.102,19.159 86.513,19.159 C85.148,19.159 83.656,19.39 83.656,21.19 C83.656,22.242 84.506,22.681 85.536,22.681 C86.46,22.681 87.385,22.371 88.31,21.753 Z M87.206,8.334 C90.985,8.334 94.123,9.93 94.123,15.482 L94.123,26.77 L89.185,26.77 L88.67,24.968 C87.335,25.917 85.766,27 83.656,27 C80.855,27 78.286,25.483 78.286,21.753 C78.286,17.718 81.395,15.482 85.406,15.482 C86.46,15.482 87.359,15.559 88.31,15.586 L88.31,14.915 C88.31,13.295 87.824,12.629 85.328,12.629 C83.967,12.629 81.884,12.936 80.342,13.243 L79.648,9.158 C81.96,8.642 84.611,8.334 87.206,8.334 Z M106.798,15.996 C110.19,17.255 110.962,19.364 110.962,21.472 C110.962,24.84 108.491,26.976 103.659,26.976 C101.298,26.976 98.495,26.512 96.923,26.15 L97.696,21.883 C99.108,22.114 101.448,22.655 103.146,22.655 C104.124,22.655 105.253,22.524 105.253,21.546 C105.253,20.751 104.792,20.545 103.198,19.957 L101.425,19.312 C98.44,18.232 96.742,16.973 96.742,13.991 C96.742,10.314 99.571,8.23 103.249,8.23 C105.972,8.23 108.624,8.798 110.165,9.158 L109.47,13.243 C108.085,12.936 105.743,12.446 104.175,12.446 C103.019,12.446 102.399,12.808 102.399,13.528 C102.399,14.376 103.274,14.684 104.716,15.224 L106.798,15.996 Z M72.421,20.728 C72.421,22.038 72.964,22.5 73.967,22.5 C74.606,22.5 75.251,22.424 76.228,22.218 L76.228,26.408 C74.4,26.794 72.862,27 71.55,27 C69.005,27 66.512,25.74 66.512,22.114 L66.512,4.323 L72.421,3.554 L72.421,8.564 L76.024,8.564 L76.024,12.757 L72.421,12.757 L72.421,20.728 Z"/>
  </g>
</svg>
