<svg version="1.1" id="Layer_1" 
	xmlns="http://www.w3.org/2000/svg" 
	xmlns:xlink="http://www.w3.org/1999/xlink" viewBox="0 0 105.5 97.5" style="enable-background:new 0 0 105.5 97.5;" xml:space="preserve">
	<style type="text/css">
	.st0{fill-rule:evenodd;clip-rule:evenodd;fill:url(#SVGID_1_);}
	.st1{fill-rule:evenodd;clip-rule:evenodd;fill:url(#SVGID_2_);}
	.st2{fill-rule:evenodd;clip-rule:evenodd;fill:url(#SVGID_3_);}
	.st3{fill-rule:evenodd;clip-rule:evenodd;fill:url(#SVGID_4_);}
	.st4{fill-rule:evenodd;clip-rule:evenodd;fill:url(#SVGID_5_);}
	.st5{fill-rule:evenodd;clip-rule:evenodd;fill:url(#SVGID_6_);}
	.st6{fill-rule:evenodd;clip-rule:evenodd;fill:url(#SVGID_7_);}
	.st7{fill-rule:evenodd;clip-rule:evenodd;fill:url(#SVGID_8_);}
	.st8{fill-rule:evenodd;clip-rule:evenodd;fill:url(#SVGID_9_);}
	.st9{fill-rule:evenodd;clip-rule:evenodd;fill:url(#SVGID_10_);}
	.st10{fill-rule:evenodd;clip-rule:evenodd;fill:url(#SVGID_11_);}
	.st11{fill-rule:evenodd;clip-rule:evenodd;fill:url(#SVGID_12_);}
	.st12{fill-rule:evenodd;clip-rule:evenodd;fill:url(#SVGID_13_);}
	.st13{fill-rule:evenodd;clip-rule:evenodd;fill:url(#SVGID_14_);}
	.st14{fill-rule:evenodd;clip-rule:evenodd;fill:url(#SVGID_15_);}
	.st15{fill-rule:evenodd;clip-rule:evenodd;fill:url(#SVGID_16_);}
	.st16{fill-rule:evenodd;clip-rule:evenodd;fill:url(#SVGID_17_);}
	.st17{fill-rule:evenodd;clip-rule:evenodd;fill:url(#SVGID_18_);}
	.st18{fill-rule:evenodd;clip-rule:evenodd;fill:url(#SVGID_19_);}
	.st19{fill-rule:evenodd;clip-rule:evenodd;fill:url(#SVGID_20_);}
	.st20{fill:#FFFFFF;}
	.st21{fill-rule:evenodd;clip-rule:evenodd;fill:url(#SVGID_21_);}
	.st22{fill-rule:evenodd;clip-rule:evenodd;fill:url(#SVGID_22_);}
	.st23{fill-rule:evenodd;clip-rule:evenodd;fill:url(#SVGID_23_);}
	.st24{fill-rule:evenodd;clip-rule:evenodd;fill:url(#SVGID_24_);}
	.st25{fill-rule:evenodd;clip-rule:evenodd;fill:url(#SVGID_25_);}
	.st26{fill-rule:evenodd;clip-rule:evenodd;fill:url(#SVGID_26_);}
	.st27{fill-rule:evenodd;clip-rule:evenodd;fill:url(#SVGID_27_);}
	.st28{fill-rule:evenodd;clip-rule:evenodd;fill:url(#SVGID_28_);}
	</style>
	<g>
		<g>
			<g>
				<radialGradient id="SVGID_1_" cx="34.5399" cy="17.116" r="68.8659" gradientUnits="userSpaceOnUse">
					<stop offset="0" style="stop-color:#00C1F3"/>
					<stop offset="0.1455" style="stop-color:#6C9AD1"/>
					<stop offset="0.36" style="stop-color:#3978BD"/>
					<stop offset="0.6121" style="stop-color:#0B4482"/>
					<stop offset="0.8242" style="stop-color:#1B2C5D"/>
				</radialGradient>
				<circle class="st0" cx="52.8" cy="37.3" r="32.2"/>
				<linearGradient id="SVGID_2_" gradientUnits="userSpaceOnUse" x1="81.8864" y1="66.184" x2="26.4842" y2="10.7818">
					<stop offset="0" style="stop-color:#1D2252"/>
					<stop offset="1" style="stop-color:#324277"/>
				</linearGradient>
				<path class="st1" d="M54.2,10.8c15.3,0,27.7,12.5,27.7,27.7c0,15.3-12.5,27.7-27.7,27.7c-15.3,0-27.7-12.5-27.7-27.7
				C26.5,23.2,38.9,10.8,54.2,10.8L54.2,10.8z M42.1,18.5c-2.7,1.6-5,3.8-6.9,6.3l10.7,25.2l4.8-10.6h3.5h3.5l4.8,10.6l10.7-25.2
				c-1.8-2.5-4.2-4.7-6.9-6.3l-8.6,19.4h-3.5h-3.5L42.1,18.5L42.1,18.5z M60.9,16.1c-2.1-0.6-4.4-1-6.7-1c-2.3,0-4.6,0.3-6.7,1
				l6.7,15L60.9,16.1L60.9,16.1z M31.8,31.7c-0.7,2.1-1,4.4-1,6.8c0,9.4,5.6,17.5,13.5,21.2C39.9,50.4,35.8,41.1,31.8,31.7
				L31.8,31.7z M47.4,60.8c2.1,0.7,4.4,1,6.8,1c2.4,0,4.6-0.4,6.8-1l-6.8-14.7L47.4,60.8L47.4,60.8z M64,59.7
				c8-3.7,13.5-11.8,13.5-21.2c0-2.3-0.4-4.6-1-6.8C72.6,41.1,68.5,50.4,64,59.7z"/>
				<linearGradient id="SVGID_3_" gradientUnits="userSpaceOnUse" x1="53.9041" y1="39.8563" x2="63.1278" y2="59.6215">
					<stop offset="0" style="stop-color:#A8B1B0"/>
					<stop offset="0.18" style="stop-color:#9AA2A6"/>
					<stop offset="0.34" style="stop-color:#C6CCCF"/>
					<stop offset="0.54" style="stop-color:#DBDDDE"/>
					<stop offset="0.67" style="stop-color:#E9E8E9"/>
					<stop offset="0.8" style="stop-color:#EEEEEE"/>
					<stop offset="0.93" style="stop-color:#F0EFEE"/>
					<stop offset="1" style="stop-color:#F4F4F4"/>
				</linearGradient>
				<path class="st2" d="M53.8,9.6c13.9,0.1,26.5,12.2,26.5,27.5c0,15.3-12.5,27.7-27.7,27.7c-15.3,0-27.4-12.3-27.4-27.6
				S38.5,9.7,52.2,9.5L53.8,9.6z M40.7,17.2c-2.7,1.6-5,3.8-6.9,6.3l10.7,25.2l4.8-10.6h6.9L61,48.8l10.7-25.2
				c-1.8-2.5-4.2-4.7-6.9-6.3l-8.6,19.4h-7L40.7,17.2L40.7,17.2z M59.5,14.8c-2.1-0.6-4.4-1-6.7-1c-2.3,0-4.6,0.3-6.7,1l6.7,15
				L59.5,14.8L59.5,14.8z M30.2,30.3c-0.7,2.1-1,4.4-1,6.8c0,9.4,5.6,17.5,13.5,21.2L30.2,30.3L30.2,30.3z M45.8,59.4
				c2.1,0.7,4.4,1,6.8,1c2.4,0,4.6-0.4,6.8-1l-6.8-14.7L45.8,59.4L45.8,59.4z M62.3,58.3c8-3.7,13.5-11.8,13.5-21.2
				c0-2.3-0.4-4.6-1-6.8L62.3,58.3z"/>
			</g>
			<linearGradient id="SVGID_4_" gradientUnits="userSpaceOnUse" x1="70.809" y1="60.8167" x2="44.1845" y2="26.1519">
				<stop offset="0" style="stop-color:#A8B1B0"/>
				<stop offset="0.18" style="stop-color:#9AA2A6"/>
				<stop offset="0.34" style="stop-color:#C6CCCF"/>
				<stop offset="0.54" style="stop-color:#DBDDDE"/>
				<stop offset="0.67" style="stop-color:#E9E8E9"/>
				<stop offset="0.8" style="stop-color:#EEEEEE"/>
				<stop offset="0.93" style="stop-color:#F0EFEE"/>
				<stop offset="1" style="stop-color:#F4F4F4"/>
			</linearGradient>
			<path class="st3" d="M52.7,9.6C68,9.6,80.5,22,80.5,37.3C80.5,52.6,68,65,52.7,65C37.5,65,25,52.6,25,37.3
			C25,22,37.5,9.6,52.7,9.6L52.7,9.6z M40.7,17.3c-2.7,1.6-5,3.8-6.9,6.3l10.7,25.2l4.8-10.6h6.9L61,48.9l10.7-25.2
			c-1.8-2.5-4.2-4.7-6.9-6.3l-8.6,19.4h-7L40.7,17.3L40.7,17.3z M59.5,14.9c-2.1-0.6-4.4-1-6.7-1c-2.3,0-4.6,0.3-6.7,1l6.7,15
			L59.5,14.9L59.5,14.9z M30.4,30.5c-0.7,2.1-1,4.4-1,6.8c0,9.4,5.6,17.5,13.5,21.2L30.4,30.5L30.4,30.5z M46,59.7
			c2.1,0.7,4.4,1,6.8,1c2.4,0,4.6-0.4,6.8-1L52.8,45L46,59.7L46,59.7z M62.6,58.5c8-3.7,13.5-11.8,13.5-21.2c0-2.3-0.4-4.6-1-6.8
			L62.6,58.5z"/>
		</g>
		<g fill="currentColor">
			<path d="M17.6,77.6l-4,11.2h-2.8l-4-11.2v-0.2h2.5l2.9,8.9h0.1l2.8-8.9h2.5V77.6z"/>
			<path d="M21.8,89c-2.7,0-4.2-1.9-4.2-4.3c0-2.3,1.5-4.3,4.2-4.3c2.8,0,4.2,1.9,4.2,4.3C26.1,87.1,24.6,89,21.8,89z M21.8,87.2
			c1.2,0,1.9-0.8,1.9-2.4c0-1.6-0.8-2.4-1.9-2.4c-1.1,0-1.9,0.8-1.9,2.4C19.9,86.4,20.7,87.2,21.8,87.2z"/>
			<path d="M30,77.1V87c0,0.2,0,0.3,0.3,0.3h0.9v1.5c-0.3,0.1-0.8,0.1-1.3,0.1c-1.5,0-2.1-0.7-2.1-2.3v-9.5H30z"/>
			<path d="M34.8,85.1v3.7h-2.2V77.1h2.2v7.2h0l2.8-3.6h2.4v0.2l-3,3.7l3.2,4v0.2h-2.5L34.8,85.1L34.8,85.1z"/>
			<path d="M41.7,86.7c0.8,0.4,1.7,0.7,2.6,0.7c0.9,0,1.3-0.3,1.3-0.8c0-0.5-0.4-0.7-1.1-0.8l-1-0.3c-1.1-0.3-2.2-0.9-2.2-2.4
			c0-1.6,1.2-2.6,3.3-2.6c1.2,0,2.1,0.2,3,0.6l-0.6,1.6c-0.7-0.3-1.5-0.5-2.3-0.5c-0.8,0-1.2,0.2-1.2,0.7c0,0.5,0.4,0.6,1,0.8l1,0.2
			c1.3,0.3,2.3,1,2.3,2.4c0,1.7-1.3,2.6-3.4,2.6C43,89,42,88.8,41,88.3L41.7,86.7z"/>
			<path d="M62,80.9l-2.4,7.9h-2.4L55.3,83h0l-1.8,5.8H51l-2.4-7.9v-0.2h2.2l1.5,5.6h0l1.7-5.6h2.4l1.7,5.6h0l1.5-5.6H62V80.9z"/>
			<path d="M70,87c0,0.3,0,0.3,0.3,0.3h0.6v1.5c-0.3,0.1-0.7,0.1-1.2,0.1c-0.9,0-1.3-0.3-1.6-0.9h0c-0.5,0.4-1.6,1-2.6,1
			c-1.8,0-2.7-1.1-2.7-2.5c0-1.8,1.1-2.6,4-2.6h1.1v-0.4c0-1-0.9-1.1-1.4-1.1c-0.9,0-1.9,0.2-2.7,0.6l-0.5-1.7
			c0.8-0.4,2.1-0.7,3.3-0.7c2.3,0,3.4,1.2,3.4,3.2V87z M66.9,85.3c-1.5,0-2,0.4-2,1c0,0.7,0.4,1,1.1,1c0.6,0,1.4-0.2,1.8-0.5v-1.4
			H66.9z"/>
			<path d="M79.9,88.3c0,2.7-1.5,4.1-4.1,4.1c-1.3,0-2.4-0.4-3.1-0.8l0.6-1.6c0.7,0.3,1.5,0.6,2.5,0.6c1.3,0,1.9-0.5,1.9-1.8v-0.6h0
			c-0.5,0.3-1.1,0.8-2.3,0.8c-2.3,0-3.5-1.8-3.5-4.2s1.2-4.2,3.5-4.2c1.2,0,1.9,0.6,2.5,1h0l0.3-0.7h1.7V88.3z M77.7,82.9
			c-0.4-0.3-1-0.5-1.6-0.5c-1.3,0-1.9,0.9-1.9,2.4s0.6,2.3,1.9,2.3c0.6,0,1.2-0.2,1.6-0.4V82.9z"/>
			<path d="M83.9,85.4c0.1,1.1,0.8,1.8,2,1.8c0.9,0,1.8-0.2,2.6-0.5l0.5,1.6c-0.8,0.4-2,0.7-3.2,0.7c-2.8,0-4.1-1.9-4.1-4.3
			c0-2.3,1.4-4.2,4-4.2c2.6,0,3.7,1.6,3.7,3.5c0,0.5-0.1,1.2-0.1,1.4H83.9z M87.3,84c0-0.1,0-0.2,0-0.2c0-0.9-0.4-1.6-1.7-1.6
			c-1.1,0-1.7,0.9-1.7,1.9H87.3z"/>
			<path d="M92.8,80.8l0.3,0.8h0c0.5-0.4,1.3-1,2.6-1c1.9,0,3,1.3,3,3.2v5.1h-2.2V84c0-1-0.4-1.6-1.4-1.6c-0.8,0-1.4,0.4-1.7,0.7v5.7
			H91v-8H92.8z"/>
		</g>
	</g>
</svg>
